<svg width="178" height="180" viewBox="0 0 178 180" fill="none" xmlns="http://www.w3.org/2000/svg">
<g clip-path="url(#clip0_1533_363)">
<path fill-rule="evenodd" clip-rule="evenodd" d="M57.5901 113.8L56.3701 113.29C54.5412 112.532 53.0132 111.193 52.0225 109.479C51.0318 107.765 50.6338 105.773 50.8901 103.81C51.2601 100.64 51.5901 99.3599 51.3801 98.1599C51.1701 96.9599 50.3801 95.8799 48.9901 93.0299C48.0764 91.272 47.7684 89.2616 48.1137 87.3108C48.459 85.3599 49.4385 83.5774 50.9001 82.2399C53.2301 80.0499 54.3001 79.2899 54.9001 78.2399C55.5001 77.1899 55.6401 75.8799 56.3701 72.7699C56.807 70.8444 57.8651 69.1159 59.3812 67.851C60.8973 66.5861 62.7874 65.8548 64.7601 65.7699C67.9401 65.5899 69.2501 65.6899 70.4001 65.2699C71.5501 64.8499 72.4801 63.9299 75.0401 62.0199C76.6112 60.8157 78.5355 60.1631 80.5151 60.1631C82.4946 60.1631 84.4189 60.8157 85.9901 62.0199C88.5501 63.9299 89.4901 64.8499 90.6401 65.2699C91.7901 65.6899 93.0901 65.5899 96.2801 65.7699C98.2528 65.8548 100.143 66.5861 101.659 67.851C103.175 69.1159 104.233 70.8444 104.67 72.7699C105.4 75.8699 105.53 77.1799 106.14 78.2399C106.75 79.2999 107.82 80.0599 110.14 82.2399C111.602 83.5774 112.581 85.3599 112.926 87.3108C113.272 89.2616 112.964 91.272 112.05 93.0299C110.61 95.8799 109.86 96.9599 109.65 98.1599C109.44 99.3599 109.77 100.64 110.15 103.8C110.398 105.714 110.025 107.656 109.085 109.342C108.145 111.027 106.689 112.366 104.93 113.16L111.09 127.5C111.302 127.987 111.377 128.522 111.305 129.049C111.234 129.575 111.019 130.072 110.685 130.484C110.351 130.897 109.91 131.21 109.41 131.389C108.91 131.568 108.37 131.606 107.85 131.5L99.6701 129.83L95.2601 136.92C94.9786 137.371 94.5791 137.736 94.1049 137.975C93.6307 138.215 93.0999 138.32 92.5701 138.28C92.0384 138.238 91.5288 138.05 91.098 137.735C90.6672 137.421 90.3321 136.993 90.1301 136.5L84.6901 123.63C83.3522 123.086 81.9456 122.729 80.5101 122.57C79.8531 122.591 79.2028 122.709 78.5801 122.92L70.6501 139.79C70.4245 140.266 70.0734 140.672 69.6346 140.964C69.1958 141.255 68.6857 141.422 68.1593 141.446C67.6328 141.469 67.1099 141.349 66.6467 141.098C66.1834 140.847 65.7974 140.474 65.5301 140.02L61.3301 132.79L53.1001 134.24C52.5799 134.328 52.0455 134.273 51.554 134.081C51.0626 133.889 50.6326 133.567 50.3101 133.15C49.9819 132.73 49.7772 132.227 49.7189 131.697C49.6606 131.167 49.751 130.631 49.9801 130.15L57.5901 113.8ZM99.6701 115.58L99.5301 115.68C98.6001 116.47 98.0301 117.68 96.2901 120.33C95.1067 122.177 93.2896 123.528 91.1801 124.13C92.1801 126.53 93.3001 129.13 93.3001 129.13L95.8201 125.07C96.13 124.575 96.5823 124.185 97.1175 123.951C97.6528 123.717 98.2462 123.651 98.8201 123.76L103.56 124.76L99.6701 115.58ZM71.4901 124.44C70.1281 124.312 68.8133 123.876 67.6454 123.163C66.4775 122.451 65.4873 121.482 64.7501 120.33C63.7501 118.72 63.0801 117.65 62.5401 116.89L57.5401 127.62L62.3001 126.78C62.8833 126.678 63.4838 126.757 64.0204 127.008C64.557 127.258 65.0037 127.667 65.3001 128.18L67.7401 132.37L71.4901 124.44ZM82.4901 66.6099C81.9153 66.172 81.2127 65.9348 80.4901 65.9348C79.7675 65.9348 79.0648 66.172 78.4901 66.6099C75.1701 69.0899 73.8401 70.1199 72.3601 70.6099C70.8801 71.0999 69.1901 71.2099 65.0601 71.4499C64.3314 71.4897 63.6364 71.7691 63.083 72.2448C62.5296 72.7204 62.1489 73.3656 62.0001 74.0799C61.0601 78.0799 60.7101 79.7499 59.9201 81.0799C59.1301 82.4099 57.9201 83.5799 54.9201 86.4199C54.3727 86.9122 54.0062 87.5739 53.8793 88.2991C53.7524 89.0242 53.8724 89.771 54.2201 90.4199C56.0901 94.1099 56.8801 95.5999 57.1501 97.1599C57.4201 98.7199 57.1501 100.38 56.7001 104.49C56.6051 105.208 56.7496 105.937 57.1112 106.564C57.4728 107.192 58.0313 107.682 58.7001 107.96C62.5001 109.59 64.0601 110.22 65.2701 111.24C66.4801 112.26 67.3801 113.68 69.6501 117.15C70.0409 117.747 70.6146 118.201 71.2852 118.444C71.9559 118.688 72.6874 118.707 73.3701 118.5C77.3701 117.31 78.9301 116.79 80.5101 116.79C82.0901 116.79 83.7001 117.31 87.6601 118.5C88.3518 118.716 89.0952 118.699 89.7762 118.451C90.4572 118.204 91.0382 117.739 91.4301 117.13C93.6901 113.66 94.5901 112.24 95.8001 111.22C97.0101 110.2 98.5701 109.57 102.38 107.94C103.048 107.661 103.605 107.17 103.967 106.543C104.328 105.916 104.473 105.188 104.38 104.47C103.89 100.36 103.66 98.6899 103.93 97.1399C104.2 95.5899 104.99 94.1399 106.86 90.3999C107.203 89.7497 107.32 89.0043 107.193 88.2804C107.066 87.5566 106.703 86.8952 106.16 86.3999C103.16 83.5599 101.9 82.3999 101.1 81.0599C100.3 79.7199 99.9601 78.0599 99.0101 74.0599C98.8533 73.3648 98.475 72.7394 97.9322 72.2777C97.3894 71.8161 96.7113 71.5431 96.0001 71.4999C91.8701 71.2599 90.1901 71.1999 88.7101 70.6599C87.2301 70.1199 85.8901 69.0899 82.5801 66.6599L82.4901 66.6099ZM80.4901 112.68C76.4601 112.676 72.5218 111.477 69.173 109.236C65.8242 106.994 63.2151 103.809 61.6757 100.085C60.1362 96.3609 59.7355 92.2638 60.5241 88.3118C61.3127 84.3597 63.2553 80.7302 66.1063 77.882C68.9573 75.0339 72.5887 73.0948 76.5415 72.3101C80.4943 71.5253 84.591 71.9301 88.3138 73.4732C92.0366 75.0163 95.2183 77.6285 97.4568 80.9795C99.6953 84.3305 100.89 88.27 100.89 92.2999C100.877 97.701 98.7254 102.877 94.9063 106.696C91.0872 110.515 85.9111 112.667 80.5101 112.68H80.4901ZM80.4901 106.89C83.3765 106.894 86.1993 106.042 88.6013 104.441C91.0032 102.84 92.8764 100.563 93.9837 97.8972C95.0911 95.2315 95.3828 92.2973 94.8222 89.4659C94.2615 86.6344 92.8735 84.0328 90.8338 81.9903C88.7942 79.9479 86.1945 78.5563 83.3638 77.9918C80.5331 77.4272 77.5985 77.7149 74.9313 78.8186C72.2642 79.9223 69.9844 81.7923 68.3803 84.1921C66.7763 86.5918 65.9201 89.4135 65.9201 92.2999C65.928 96.167 67.4677 99.8734 70.2021 102.608C72.9366 105.342 76.643 106.882 80.5101 106.89H80.4901ZM19.8301 66.7499C19.2301 56.8599 16.3901 53.1399 14.2301 49.3199C12.0737 45.7833 10.9802 41.7009 11.0801 37.5599C11.2099 31.1202 13.8592 24.988 18.4594 20.4796C23.0596 15.9712 29.244 13.446 35.6851 13.446C42.1261 13.446 48.3105 15.9712 52.9107 20.4796C57.5109 24.988 60.1602 31.1202 60.2901 37.5599C60.395 41.7016 59.3012 45.7853 57.1401 49.3199C54.9701 53.1499 52.1401 56.8799 51.5401 66.8199V70.1899C51.5363 71.3787 51.2037 72.5433 50.5788 73.5546C49.954 74.566 49.0615 75.3846 48.0001 75.9199V77.2499C47.9966 78.4553 47.6545 79.6353 47.0126 80.6556C46.3708 81.6758 45.4551 82.4951 44.3701 83.0199V84.3099C44.3649 86.0024 43.6937 87.6248 42.5016 88.8262C41.3095 90.0277 39.6924 90.7116 38.0001 90.7299H33.3901C31.695 90.7142 30.0743 90.0318 28.8785 88.8304C27.6827 87.6289 27.0079 86.005 27.0001 84.3099V83.0199C25.9169 82.4937 25.0033 81.6738 24.3633 80.6537C23.7233 79.6335 23.3826 78.4542 23.3801 77.2499V75.9199C22.3209 75.3837 21.4312 74.5642 20.8098 73.5527C20.1884 72.5411 19.8596 71.3771 19.8601 70.1899L19.8301 66.7499ZM45.7501 69.5599H25.6201V70.1899C25.62 70.358 25.6861 70.5192 25.804 70.639C25.9218 70.7587 26.0821 70.8273 26.2501 70.8299H45.1201C45.2881 70.8273 45.4483 70.7587 45.5662 70.639C45.684 70.5192 45.7501 70.358 45.7501 70.1899V69.5599ZM42.2301 76.6199H29.1401V77.2499C29.1427 77.4179 29.2113 77.5782 29.331 77.696C29.4508 77.8139 29.612 77.88 29.7801 77.8799H41.5901C41.7581 77.88 41.9194 77.8139 42.0391 77.696C42.1588 77.5782 42.2274 77.4179 42.2301 77.2499V76.6199ZM38.6001 83.6199H32.7601V84.2599C32.7626 84.4262 32.8298 84.585 32.9474 84.7026C33.065 84.8202 33.2238 84.8874 33.3901 84.8899H38.0001C38.1654 84.8873 38.3231 84.8198 38.4391 84.7019C38.5551 84.5841 38.6201 84.4253 38.6201 84.2599L38.6001 83.6199ZM42.3301 63.7199H46.0001C46.418 58.3313 48.1001 53.1169 50.9101 48.4999C52.7301 45.3599 54.5001 42.8699 54.5001 37.4999C54.3867 32.585 52.3547 27.9095 48.8385 24.4735C45.3224 21.0375 40.6013 19.1137 35.6851 19.1137C30.7688 19.1137 26.0477 21.0375 22.5316 24.4735C19.0154 27.9095 16.9834 32.585 16.8701 37.4999C16.8701 42.8299 18.6401 45.3199 20.4601 48.4999C23.286 53.122 24.9756 58.3483 25.3901 63.7499H29.0001V45.6599H26.8901C25.3197 45.6599 23.7846 45.1943 22.4788 44.3218C21.1731 43.4493 20.1554 42.2093 19.5545 40.7584C18.9535 39.3076 18.7963 37.7111 19.1026 36.1709C19.409 34.6307 20.1652 33.2159 21.2756 32.1055C22.3861 30.9951 23.8008 30.2389 25.341 29.9325C26.8813 29.6261 28.4777 29.7834 29.9286 30.3843C31.3794 30.9853 32.6195 32.003 33.4919 33.3087C34.3644 34.6144 34.8301 36.1496 34.8301 37.7199V39.8699H36.5401V37.7199C36.5401 36.1496 37.0057 34.6144 37.8782 33.3087C38.7506 32.003 39.9907 30.9853 41.4416 30.3843C42.8924 29.7834 44.4889 29.6261 46.0291 29.9325C47.5693 30.2389 48.9841 30.9951 50.0945 32.1055C51.2049 33.2159 51.9611 34.6307 52.2675 36.1709C52.5739 37.7111 52.4166 39.3076 51.8157 40.7584C51.2147 42.2093 50.197 43.4493 48.8913 44.3218C47.5856 45.1943 46.0504 45.6599 44.4801 45.6599H42.3301V63.7199ZM34.8301 63.7199H36.5401V45.6599H34.8301V63.7199ZM42.3301 39.8199H44.4801C44.9053 39.8199 45.321 39.6938 45.6745 39.4576C46.0281 39.2214 46.3037 38.8856 46.4664 38.4927C46.6291 38.0998 46.6717 37.6676 46.5887 37.2505C46.5058 36.8334 46.301 36.4503 46.0003 36.1497C45.6997 35.849 45.3166 35.6442 44.8995 35.5612C44.4824 35.4783 44.0501 35.5209 43.6573 35.6836C43.2644 35.8463 42.9286 36.1219 42.6924 36.4755C42.4562 36.829 42.3301 37.2447 42.3301 37.6699V39.8199ZM29.0001 39.8699V37.7199C29.0001 37.2947 28.874 36.879 28.6377 36.5255C28.4015 36.1719 28.0657 35.8963 27.6728 35.7336C27.28 35.5709 26.8477 35.5283 26.4306 35.6112C26.0136 35.6942 25.6305 35.899 25.3298 36.1997C25.0291 36.5003 24.8243 36.8834 24.7414 37.3005C24.6584 37.7176 24.701 38.1498 24.8637 38.5427C25.0264 38.9356 25.302 39.2714 25.6556 39.5076C26.0091 39.7438 26.4248 39.8699 26.8501 39.8699H29.0001ZM119.48 159.42H118.9C117.01 159.47 115.128 159.141 113.367 158.452C111.606 157.764 110 156.729 108.645 155.41C107.29 154.09 106.213 152.513 105.478 150.771C104.743 149.028 104.364 147.156 104.364 145.265C104.364 143.374 104.743 141.502 105.478 139.759C106.213 138.017 107.29 136.44 108.645 135.12C110 133.801 111.606 132.766 113.367 132.077C115.128 131.389 117.01 131.06 118.9 131.11H130.43C140.08 129.05 149.2 123.06 156.98 118.69C157.94 118.148 159.026 117.868 160.129 117.876C161.231 117.885 162.312 118.182 163.264 118.738C164.216 119.295 165.006 120.091 165.554 121.047C166.103 122.004 166.391 123.087 166.39 124.19V135.85C168.396 136.413 170.162 137.616 171.421 139.276C172.679 140.936 173.36 142.962 173.36 145.045C173.36 147.128 172.679 149.154 171.421 150.814C170.162 152.474 168.396 153.677 166.39 154.24V165.9C166.389 167.03 166.085 168.138 165.51 169.111C164.935 170.083 164.11 170.883 163.12 171.429C162.131 171.974 161.014 172.244 159.884 172.211C158.755 172.178 157.656 171.842 156.7 171.24C149.63 166.77 142.17 162.24 133.62 160.1V177.1C133.621 177.48 133.548 177.857 133.403 178.209C133.258 178.561 133.046 178.881 132.777 179.15C132.509 179.419 132.19 179.633 131.838 179.779C131.487 179.925 131.11 180 130.73 180H128.6C126.193 179.992 123.886 179.031 122.185 177.328C120.483 175.625 119.525 173.317 119.52 170.91L119.48 159.42ZM166.39 142.31V147.78C166.763 147.428 167.059 147.005 167.262 146.534C167.465 146.064 167.57 145.557 167.57 145.045C167.57 144.533 167.465 144.026 167.262 143.556C167.059 143.085 166.763 142.661 166.39 142.31ZM133.62 154.14C139.867 155.642 145.861 158.051 151.41 161.29V128.5C145.84 131.6 139.84 134.62 133.62 136.27V154.14ZM157.2 164.72L159.79 166.34C159.871 166.389 159.965 166.416 160.06 166.416C160.155 166.416 160.249 166.389 160.33 166.34C160.412 166.295 160.481 166.228 160.529 166.147C160.576 166.066 160.601 165.974 160.6 165.88V124.19C160.601 124.099 160.577 124.009 160.532 123.929C160.486 123.85 160.42 123.785 160.34 123.74C160.26 123.691 160.169 123.666 160.075 123.666C159.982 123.666 159.89 123.691 159.81 123.74L157.2 125.23V164.72ZM127.87 136.9H118.94C117.817 136.861 116.698 137.049 115.649 137.452C114.6 137.855 113.644 138.464 112.835 139.245C112.027 140.026 111.385 140.961 110.946 141.995C110.507 143.029 110.281 144.141 110.281 145.265C110.281 146.388 110.507 147.5 110.946 148.535C111.385 149.569 112.027 150.504 112.835 151.285C113.644 152.065 114.6 152.675 115.649 153.078C116.698 153.481 117.817 153.669 118.94 153.63H127.87V136.9ZM127.87 159.42H125.31V170.88C125.311 171.627 125.564 172.351 126.029 172.936C126.494 173.52 127.143 173.931 127.87 174.1V159.42ZM38.5801 8.49994C38.5366 9.23832 38.2127 9.93221 37.6746 10.4396C37.1364 10.9471 36.4247 11.2297 35.6851 11.2297C34.9454 11.2297 34.2337 10.9471 33.6955 10.4396C33.1574 9.93221 32.8335 9.23832 32.7901 8.49994V3.38994C32.8335 2.65155 33.1574 1.95766 33.6955 1.45022C34.2337 0.942785 34.9454 0.660156 35.6851 0.660156C36.4247 0.660156 37.1364 0.942785 37.6746 1.45022C38.2127 1.95766 38.5366 2.65155 38.5801 3.38994V8.49994ZM21.8201 11.4999C22.1223 12.1564 22.1685 12.902 21.9497 13.5908C21.7308 14.2796 21.2627 14.8618 20.637 15.2234C20.0113 15.5851 19.2732 15.7001 18.5671 15.5459C17.8611 15.3917 17.238 14.9795 16.8201 14.3899L14.2501 9.90994C14.0415 9.58099 13.9015 9.21328 13.8386 8.82888C13.7757 8.44448 13.7912 8.05134 13.8841 7.67307C13.9769 7.2948 14.1453 6.9392 14.3791 6.62766C14.6129 6.31611 14.9072 6.05503 15.2445 5.86011C15.5817 5.66519 15.9549 5.54046 16.3415 5.49339C16.7282 5.44633 17.1203 5.47792 17.4945 5.58625C17.8686 5.69458 18.217 5.87743 18.5187 6.1238C18.8204 6.37017 19.0691 6.67499 19.2501 7.01994L21.8201 11.4999ZM8.82006 22.4299C9.165 22.6108 9.46982 22.8596 9.71619 23.1613C9.96257 23.463 10.1454 23.8114 10.2537 24.1855C10.3621 24.5597 10.3937 24.9518 10.3466 25.3385C10.2995 25.7251 10.1748 26.0983 9.97988 26.4355C9.78496 26.7728 9.52389 27.0671 9.21234 27.3009C8.90079 27.5347 8.5452 27.7031 8.16693 27.7959C7.78865 27.8888 7.39551 27.9043 7.01111 27.8414C6.62672 27.7785 6.259 27.6385 5.93006 27.4299L1.45006 24.8299C1.10511 24.649 0.800296 24.4003 0.553923 24.0986C0.307549 23.7969 0.124704 23.4485 0.0163709 23.0744C-0.0919618 22.7002 -0.123546 22.308 -0.0764833 21.9214C-0.029421 21.5347 0.0953165 21.1616 0.290235 20.8243C0.485153 20.4871 0.746229 20.1928 1.05778 19.959C1.36933 19.7252 1.72492 19.5568 2.10319 19.4639C2.48146 19.3711 2.87461 19.3556 3.259 19.4185C3.6434 19.4814 4.01112 19.6213 4.34006 19.8299L8.82006 22.4299ZM54.6101 14.4299C54.2106 15.0599 53.583 15.511 52.8586 15.6889C52.1342 15.8667 51.369 15.7576 50.7232 15.3843C50.0774 15.011 49.6009 14.4025 49.3935 13.686C49.186 12.9695 49.2636 12.2005 49.6101 11.5399L52.1701 7.10994C52.351 6.76499 52.5997 6.46017 52.9014 6.2138C53.2031 5.96743 53.5515 5.78458 53.9256 5.67625C54.2998 5.56792 54.692 5.53633 55.0786 5.58339C55.4653 5.63046 55.8384 5.75519 56.1756 5.95011C56.5129 6.14503 56.8072 6.40611 57.041 6.71766C57.2748 7.0292 57.4432 7.3848 57.5361 7.76307C57.6289 8.14134 57.6444 8.53448 57.5815 8.91888C57.5186 9.30328 57.3787 9.67099 57.1701 9.99994L54.6101 14.4299ZM65.5001 27.3899C64.837 27.7745 64.0484 27.8799 63.3076 27.683C62.5668 27.4861 61.9346 27.003 61.5501 26.3399C61.1655 25.6769 61.0601 24.8882 61.257 24.1475C61.4539 23.4067 61.937 22.7745 62.6001 22.3899L67.0001 19.8199C67.6631 19.4354 68.4518 19.3299 69.1925 19.5269C69.9333 19.7238 70.5655 20.2069 70.9501 20.8699C71.3346 21.533 71.44 22.3216 71.2431 23.0624C71.0462 23.8032 70.5631 24.4354 69.9001 24.8199L65.5001 27.3899ZM118.34 63.8599L161 21.2099C161.82 20.3896 162.794 19.7389 163.865 19.2949C164.937 18.851 166.085 18.6224 167.245 18.6224C168.405 18.6224 169.553 18.851 170.625 19.2949C171.697 19.7389 172.67 20.3896 173.49 21.2099L175.17 22.8799C176.815 24.5424 177.737 26.7865 177.737 29.1249C177.737 31.4634 176.815 33.7075 175.17 35.3699L132.51 78.0299C132.15 78.3901 131.702 78.6488 131.21 78.7799L117.44 82.4999C116.949 82.629 116.433 82.627 115.944 82.4941C115.454 82.3613 115.007 82.1023 114.649 81.743C114.291 81.3837 114.033 80.9366 113.902 80.4465C113.77 79.9564 113.77 79.4403 113.9 78.9499L117.59 65.1899C117.721 64.6981 117.98 64.2497 118.34 63.8899V63.8599ZM158.14 32.2499L124.48 65.9099L130.48 71.9099L164.14 38.2499L158.14 32.2499ZM168.21 34.1399L171.07 31.2799C171.639 30.7068 171.958 29.9322 171.958 29.1249C171.958 28.3176 171.639 27.5431 171.07 26.9699L169.39 25.2999C169.111 25.0157 168.778 24.79 168.41 24.6359C168.043 24.4818 167.648 24.4024 167.25 24.4024C166.852 24.4024 166.457 24.4818 166.09 24.6359C165.722 24.79 165.389 25.0157 165.11 25.2999L162.25 28.1699L168.21 34.1399ZM121.88 71.4999C121.34 73.4999 120.79 75.5799 120.79 75.5799L124.87 74.4799L121.88 71.4999ZM26.8801 138.5L31.8801 125.25C32.1583 124.474 32.6693 123.804 33.3433 123.329C34.0172 122.855 34.8211 122.601 35.6451 122.601C36.4691 122.601 37.273 122.855 37.9469 123.329C38.6208 123.804 39.1318 124.474 39.4101 125.25L44.4101 138.5L58.5601 139.19C59.4005 139.184 60.2213 139.443 60.906 139.931C61.5908 140.418 62.1047 141.109 62.3747 141.904C62.6448 142.7 62.6574 143.561 62.4106 144.364C62.1638 145.168 61.6703 145.873 61.0001 146.38L50.0001 155.27C50.9401 158.72 53.7101 168.94 53.7101 168.94C53.9429 169.729 53.9265 170.572 53.6632 171.351C53.3998 172.131 52.9023 172.811 52.2384 173.297C51.5746 173.784 50.7768 174.054 49.9539 174.071C49.1309 174.087 48.3229 173.85 47.6401 173.39L35.7701 165.62L23.9101 173.39C23.2287 173.85 22.4221 174.089 21.6001 174.074C20.778 174.06 19.9805 173.792 19.316 173.308C18.6515 172.824 18.1523 172.147 17.8864 171.369C17.6205 170.591 17.6009 169.75 17.8301 168.96L21.5501 155.28L10.5501 146.4C9.89936 145.896 9.42002 145.203 9.17743 144.417C8.93485 143.63 8.94082 142.788 9.19454 142.005C9.44827 141.222 9.93738 140.536 10.5952 140.041C11.2529 139.546 12.0474 139.267 12.8701 139.24L26.8801 138.5ZM17.6301 144.75C21.1501 147.6 26.0001 151.5 26.0001 151.5C26.6239 151.977 27.0899 152.631 27.3377 153.376C27.5856 154.122 27.6038 154.924 27.3901 155.68L24.5301 166C28.3001 163.53 33.4601 160.14 33.4601 160.15C34.1139 159.702 34.8877 159.463 35.6801 159.463C36.4724 159.463 37.2462 159.702 37.9001 160.15L46.8301 166L44.0001 155.67C43.7934 154.913 43.8172 154.113 44.0684 153.37C44.3196 152.627 44.7867 151.976 45.4101 151.5L53.7301 144.81L43.0001 144.25C42.2159 144.223 41.4578 143.962 40.8234 143.5C40.1889 143.039 39.7071 142.398 39.4401 141.66L35.6401 131.66L31.8401 141.66C31.5772 142.398 31.0978 143.041 30.4646 143.503C29.8313 143.965 29.0735 144.225 28.2901 144.25L17.6301 144.75ZM22.0001 126.4C22.1537 126.747 22.2374 127.121 22.2465 127.501C22.2555 127.881 22.1896 128.259 22.0527 128.613C21.9157 128.967 21.7103 129.291 21.4482 129.566C21.1861 129.841 20.8724 130.061 20.5251 130.215C20.1777 130.369 19.8035 130.452 19.4238 130.461C19.0441 130.47 18.6663 130.405 18.3121 130.268C17.9578 130.131 17.634 129.925 17.3591 129.663C17.0843 129.401 16.8637 129.087 16.7101 128.74C12.7927 119.873 10.776 110.284 10.7901 100.59C10.7843 94.9599 11.4558 89.3496 12.7901 83.8799C12.9938 83.156 13.4708 82.5394 14.1205 82.1605C14.7701 81.7815 15.5416 81.6698 16.272 81.8489C17.0025 82.0279 17.6349 82.4837 18.0356 83.1202C18.4364 83.7566 18.5742 84.5238 18.4201 85.2599C15.0546 98.9937 16.3129 113.454 22.0001 126.4ZM102.16 160.82C102.883 160.555 103.681 160.587 104.38 160.911C105.078 161.234 105.62 161.822 105.885 162.545C106.15 163.268 106.118 164.066 105.794 164.765C105.471 165.463 104.883 166.005 104.16 166.27C90.7196 171.076 76.131 171.659 62.3501 167.94C61.9635 167.859 61.5975 167.7 61.2746 167.473C60.9516 167.246 60.6785 166.955 60.472 166.618C60.2654 166.282 60.1298 165.906 60.0734 165.515C60.017 165.125 60.041 164.726 60.144 164.345C60.247 163.964 60.4268 163.608 60.6723 163.298C60.9178 162.989 61.2239 162.733 61.5719 162.546C61.9198 162.36 62.3022 162.246 62.6957 162.212C63.0892 162.178 63.4854 162.225 63.8601 162.35C76.4968 165.764 89.8756 165.23 102.2 160.82H102.16ZM141.33 80.5799C141.14 79.8648 141.231 79.1042 141.583 78.4536C141.936 77.8031 142.523 77.3119 143.226 77.0806C143.929 76.8493 144.694 76.8954 145.364 77.2094C146.034 77.5235 146.558 78.0817 146.83 78.7699C150.15 88.8884 151.118 99.631 149.66 110.18C149.608 110.556 149.483 110.919 149.291 111.246C149.099 111.574 148.844 111.861 148.542 112.09C148.239 112.319 147.894 112.487 147.527 112.583C147.159 112.679 146.776 112.702 146.4 112.65C145.64 112.545 144.953 112.143 144.49 111.531C144.261 111.229 144.093 110.884 143.997 110.516C143.901 110.149 143.878 109.766 143.93 109.39C144.328 106.473 144.528 103.533 144.53 100.59C144.537 93.7952 143.457 87.0432 141.33 80.5899V80.5799ZM74.0001 36.9399C73.2609 36.9723 72.5373 36.7209 71.9774 36.2373C71.4176 35.7536 71.0637 35.0742 70.9883 34.3382C70.9129 33.6022 71.1217 32.8652 71.5719 32.2781C72.0221 31.691 72.6797 31.2981 73.4101 31.1799C90.906 29.3963 108.43 34.2818 122.48 44.8599C122.785 45.0884 123.041 45.3747 123.235 45.7024C123.429 46.0301 123.557 46.3928 123.611 46.7698C123.665 47.1468 123.644 47.5307 123.549 47.8997C123.455 48.2686 123.289 48.6153 123.06 48.9199C122.832 49.2246 122.545 49.4813 122.218 49.6753C121.89 49.8693 121.527 49.9969 121.15 50.0508C120.773 50.1046 120.389 50.0837 120.02 49.9892C119.651 49.8947 119.305 49.7284 119 49.4999C106.119 39.7922 90.0469 35.3064 74.0001 36.9399Z" fill="#6D737C"/>
</g>
<defs>
<clipPath id="clip0_1533_363">
<rect width="177.74" height="179.47" fill="white" transform="translate(0 0.5)"/>
</clipPath>
</defs>
</svg>
