<svg width="173" height="163" viewBox="0 0 173 163" fill="none" xmlns="http://www.w3.org/2000/svg">
<g clip-path="url(#clip0_1533_368)">
<path d="M72.8795 135.31C75.1397 135.308 77.3486 134.636 79.2269 133.379C81.1052 132.122 82.5687 130.336 83.4323 128.247C84.2958 126.159 84.5208 123.861 84.0786 121.644C83.6365 119.428 82.5471 117.392 80.9481 115.794C79.3492 114.197 77.3126 113.109 75.0957 112.669C72.8787 112.229 70.5811 112.456 68.4931 113.321C66.4051 114.187 64.6206 115.652 63.3651 117.531C62.1096 119.411 61.4395 121.62 61.4395 123.88C61.4395 125.382 61.7354 126.869 62.3105 128.257C62.8855 129.644 63.7283 130.904 64.7908 131.966C65.8532 133.027 67.1144 133.869 68.5023 134.443C69.8902 135.017 71.3776 135.312 72.8795 135.31ZM72.8795 117.38C74.165 117.38 75.4217 117.761 76.4907 118.476C77.5596 119.19 78.3927 120.205 78.8847 121.393C79.3766 122.58 79.5054 123.887 79.2546 125.148C79.0038 126.409 78.3847 127.567 77.4757 128.476C76.5666 129.385 75.4084 130.005 74.1475 130.255C72.8867 130.506 71.5797 130.377 70.392 129.885C69.2043 129.393 68.1891 128.56 67.4749 127.491C66.7607 126.422 66.3795 125.166 66.3795 123.88C66.3795 122.156 67.0643 120.503 68.2833 119.284C69.5022 118.065 71.1555 117.38 72.8795 117.38Z" fill="#6D737C"/>
<path d="M53.6602 144.5V160.34C53.6651 160.657 53.7339 160.969 53.8623 161.259C53.9907 161.549 54.1762 161.81 54.4076 162.026C54.6391 162.243 54.9118 162.41 55.2094 162.519C55.5071 162.628 55.8236 162.676 56.1402 162.66H89.6102C89.9257 162.676 90.2413 162.628 90.5379 162.519C90.8344 162.41 91.1058 162.242 91.3357 162.025C91.5656 161.808 91.7492 161.547 91.8754 161.258C92.0016 160.968 92.0679 160.656 92.0702 160.34V144.5C92.0663 143.126 91.7905 141.766 91.2587 140.5C90.7269 139.233 89.9496 138.084 88.9717 137.119C87.9938 136.154 86.8345 135.392 85.5607 134.878C84.287 134.363 82.9239 134.105 81.5502 134.12C81.1665 134.102 80.7842 134.177 80.4359 134.339C80.0876 134.501 79.7837 134.745 79.5502 135.05C79.0473 135.709 78.451 136.292 77.7802 136.78C76.0041 138.062 73.7973 138.6 71.6303 138.279C69.4633 137.958 67.5076 136.802 66.1802 135.06C65.9476 134.753 65.6442 134.507 65.2959 134.344C64.9475 134.18 64.5647 134.103 64.1802 134.12C62.8064 134.105 61.4433 134.363 60.1696 134.878C58.8958 135.392 57.7365 136.154 56.7586 137.119C55.7807 138.084 55.0034 139.233 54.4716 140.5C53.9398 141.766 53.664 143.126 53.6602 144.5ZM58.5902 144.5C58.5951 143.201 59.0488 141.944 59.8744 140.942C60.6999 139.94 61.8466 139.253 63.1202 139C64.3587 140.352 65.8651 141.432 67.5437 142.171C69.2222 142.91 71.0362 143.292 72.8702 143.292C74.7042 143.292 76.5181 142.91 78.1966 142.171C79.8752 141.432 81.3816 140.352 82.6202 139C83.8926 139.252 85.0379 139.939 85.8605 140.942C86.683 141.945 87.1318 143.203 87.1302 144.5V157.73H58.5902V144.5Z" fill="#6D737C"/>
<path d="M113.28 135.31C115.54 135.31 117.75 134.64 119.63 133.384C121.509 132.128 122.974 130.343 123.84 128.254C124.705 126.166 124.931 123.868 124.49 121.65C124.049 119.433 122.96 117.396 121.362 115.798C119.763 114.199 117.727 113.111 115.509 112.67C113.292 112.229 110.994 112.455 108.906 113.32C106.817 114.185 105.032 115.65 103.776 117.53C102.52 119.41 101.85 121.62 101.85 123.88C101.852 126.911 103.057 129.817 105.2 131.96C107.343 134.102 110.249 135.308 113.28 135.31ZM113.28 117.38C114.565 117.38 115.822 117.761 116.891 118.476C117.96 119.19 118.793 120.205 119.285 121.393C119.777 122.58 119.906 123.887 119.655 125.148C119.404 126.409 118.785 127.567 117.876 128.476C116.967 129.385 115.809 130.005 114.548 130.255C113.287 130.506 111.98 130.377 110.792 129.885C109.604 129.393 108.589 128.56 107.875 127.491C107.161 126.422 106.78 125.166 106.78 123.88C106.782 122.157 107.468 120.505 108.686 119.287C109.905 118.069 111.557 117.383 113.28 117.38Z" fill="#6D737C"/>
<path d="M94.1807 144.5V160.34C94.1715 160.65 94.2272 160.959 94.3443 161.247C94.4614 161.534 94.6373 161.794 94.8607 162.01C95.0827 162.229 95.3473 162.399 95.638 162.511C95.9288 162.623 96.2394 162.673 96.5507 162.66H130.001C130.322 162.678 130.644 162.631 130.947 162.524C131.25 162.417 131.53 162.25 131.768 162.035C132.007 161.819 132.201 161.558 132.339 161.268C132.477 160.977 132.555 160.661 132.571 160.34V144.5C132.529 141.731 131.394 139.091 129.414 137.154C127.435 135.217 124.77 134.141 122.001 134.16C121.617 134.141 121.234 134.216 120.886 134.378C120.537 134.54 120.234 134.785 120.001 135.09C119.501 135.752 118.904 136.335 118.231 136.82C116.455 138.103 114.248 138.641 112.081 138.319C109.914 137.998 107.958 136.843 106.631 135.1C106.398 134.793 106.095 134.548 105.746 134.384C105.398 134.22 105.015 134.143 104.631 134.16C103.262 134.141 101.904 134.395 100.635 134.907C99.3662 135.419 98.2117 136.178 97.239 137.14C96.2664 138.103 95.495 139.249 94.9699 140.513C94.4449 141.776 94.1766 143.132 94.1807 144.5ZM99.1107 144.5C99.1038 143.206 99.5469 141.95 100.364 140.947C101.181 139.943 102.322 139.255 103.591 139C105.788 141.399 108.794 142.902 112.031 143.219C115.269 143.537 118.51 142.647 121.131 140.72C121.85 140.211 122.52 139.635 123.131 139C124.409 139.251 125.562 139.935 126.394 140.937C127.227 141.939 127.688 143.197 127.701 144.5V157.73H99.1107V144.5Z" fill="#6D737C"/>
<path d="M153.69 135.31C155.95 135.31 158.16 134.64 160.04 133.384C161.92 132.128 163.385 130.343 164.25 128.254C165.115 126.166 165.341 123.868 164.9 121.65C164.459 119.433 163.371 117.396 161.772 115.798C160.173 114.199 158.137 113.111 155.92 112.67C153.702 112.229 151.404 112.455 149.316 113.32C147.227 114.185 145.442 115.65 144.186 117.53C142.93 119.41 142.26 121.62 142.26 123.88C142.262 126.911 143.467 129.817 145.61 131.96C147.753 134.102 150.659 135.308 153.69 135.31ZM153.69 117.38C154.975 117.38 156.232 117.761 157.301 118.476C158.37 119.19 159.203 120.205 159.695 121.393C160.187 122.58 160.316 123.887 160.065 125.148C159.814 126.409 159.195 127.567 158.286 128.476C157.377 129.385 156.219 130.005 154.958 130.255C153.697 130.506 152.39 130.377 151.202 129.885C150.015 129.393 148.999 128.56 148.285 127.491C147.571 126.422 147.19 125.166 147.19 123.88C147.19 122.156 147.875 120.503 149.094 119.284C150.313 118.065 151.966 117.38 153.69 117.38Z" fill="#6D737C"/>
<path d="M162.36 134.16C161.976 134.14 161.593 134.215 161.244 134.377C160.896 134.539 160.592 134.784 160.36 135.09C159.574 136.116 158.562 136.948 157.402 137.521C156.243 138.093 154.968 138.391 153.675 138.391C152.382 138.391 151.106 138.093 149.947 137.521C148.788 136.948 147.776 136.116 146.99 135.09C146.762 134.774 146.461 134.518 146.113 134.344C145.764 134.17 145.379 134.083 144.99 134.09C142.199 134.061 139.51 135.141 137.515 137.093C135.52 139.045 134.381 141.709 134.35 144.5V160.34C134.363 160.671 134.444 160.995 134.585 161.294C134.727 161.594 134.928 161.861 135.175 162.081C135.422 162.301 135.711 162.47 136.024 162.576C136.338 162.682 136.669 162.724 137 162.7H170.47C170.778 162.713 171.086 162.661 171.374 162.549C171.661 162.437 171.923 162.267 172.142 162.049C172.36 161.831 172.532 161.571 172.645 161.283C172.758 160.996 172.811 160.688 172.8 160.38V144.5C172.81 143.133 172.549 141.778 172.03 140.513C171.512 139.248 170.747 138.099 169.78 137.133C168.813 136.167 167.663 135.403 166.398 134.885C165.132 134.368 163.777 134.108 162.41 134.12L162.36 134.16ZM163.36 139.04C164.626 139.296 165.764 139.984 166.578 140.988C167.392 141.992 167.831 143.248 167.82 144.54V157.77H139.28V144.5C139.299 143.195 139.767 141.936 140.604 140.934C141.442 139.933 142.598 139.25 143.88 139C145.119 140.35 146.625 141.427 148.302 142.164C149.98 142.901 151.792 143.282 153.625 143.282C155.457 143.282 157.269 142.901 158.947 142.164C160.624 141.427 162.13 140.35 163.37 139L163.36 139.04Z" fill="#6D737C"/>
<path d="M30.5802 32.96C34.2755 32.9547 37.8176 31.4823 40.4278 28.8665C43.0381 26.2506 44.5028 22.7054 44.5002 19.01V14.42C44.5002 10.7282 43.0336 7.18758 40.4231 4.57707C37.8126 1.96657 34.272 0.5 30.5802 0.5C26.8883 0.5 23.3477 1.96657 20.7372 4.57707C18.1267 7.18758 16.6602 10.7282 16.6602 14.42V19.01C16.6575 22.7054 18.1223 26.2506 20.7325 28.8665C23.3427 31.4823 26.8848 32.9547 30.5802 32.96ZM21.5802 14.42C21.5802 12.0331 22.5284 9.74387 24.2162 8.05604C25.904 6.36821 28.1932 5.42 30.5802 5.42C32.9671 5.42 35.2563 6.36821 36.9441 8.05604C38.6319 9.74387 39.5802 12.0331 39.5802 14.42V19.01C39.5802 21.3969 38.6319 23.6861 36.9441 25.374C35.2563 27.0618 32.9671 28.01 30.5802 28.01C28.1932 28.01 25.904 27.0618 24.2162 25.374C22.5284 23.6861 21.5802 21.3969 21.5802 19.01V14.42Z" fill="#6D737C"/>
<path d="M0.100421 83.9598C0.0963035 85.1014 0.319782 86.2324 0.757795 87.2866C1.19581 88.3408 1.83957 89.2972 2.65145 90.0997C3.46333 90.9023 4.42704 91.535 5.48626 91.9608C6.54547 92.3866 7.67894 92.5971 8.82042 92.5798L8.91042 92.6698C10.4247 92.6638 11.9109 92.2603 13.2204 91.4998L14.7904 144.28C14.8535 146.13 15.4655 147.919 16.5486 149.421C17.6317 150.922 19.137 152.067 20.8728 152.71C22.6086 153.354 24.4966 153.466 26.2965 153.033C28.0964 152.6 29.7269 151.642 30.9804 150.28C32.2333 151.645 33.8645 152.607 35.6661 153.042C37.4677 153.477 39.358 153.365 41.0959 152.722C42.8339 152.078 44.3407 150.931 45.4244 149.428C46.508 147.924 47.1194 146.132 47.1804 144.28L48.7404 91.6198C50.0379 92.3619 51.5057 92.7547 53.0004 92.7598C54.1542 92.7585 55.2963 92.5293 56.3612 92.0853C57.4262 91.6414 58.3929 90.9915 59.2059 90.1728C60.019 89.3542 60.6623 88.3831 61.099 87.3151C61.5356 86.2472 61.757 85.1035 61.7504 83.9498V48.7798C62.128 45.014 60.9984 41.2521 58.6089 38.3172C56.2194 35.3823 52.7645 33.5135 49.0004 33.1198C48.529 33.0646 48.055 33.0345 47.5804 33.0298H41.5804C40.9518 33.0368 40.3487 33.2795 39.8904 33.7098L31.0004 41.9998L22.5004 33.7398C22.0416 33.288 21.4244 33.0332 20.7804 33.0298H14.3604C12.4653 33.0297 10.589 33.4048 8.83956 34.1333C7.09012 34.8618 5.50218 35.9294 4.16728 37.2745C2.83238 38.6197 1.77693 40.2157 1.06178 41.9707C0.346622 43.7256 -0.0140952 45.6048 0.000421351 47.4998C0.000421351 47.9398 0.100421 48.3898 0.100421 48.8298V83.9598ZM37.9104 148.36C37.3367 148.357 36.7691 148.241 36.2405 148.017C35.7119 147.794 35.2327 147.469 34.8304 147.06C34.4248 146.653 34.105 146.169 33.8903 145.637C33.6755 145.104 33.5702 144.534 33.5804 143.96V92.0798C33.5804 91.4247 33.3202 90.7964 32.857 90.3332C32.3938 89.87 31.7655 89.6098 31.1104 89.6098C30.4553 89.6098 29.8271 89.87 29.3639 90.3332C28.9007 90.7964 28.6404 91.4247 28.6404 92.0798V143.96C28.6072 145.105 28.1336 146.193 27.318 146.998C26.5025 147.803 25.408 148.262 24.2624 148.28C23.1167 148.298 22.0083 147.874 21.1678 147.095C20.3274 146.316 19.8197 145.243 19.7504 144.1L17.9104 83.4198H44.0504L42.2804 144.09C42.2493 145.23 41.7758 146.313 40.9601 147.11C40.1445 147.907 39.0508 148.355 37.9104 148.36ZM7.67042 40.7498C8.54572 39.8656 9.58767 39.1637 10.736 38.6848C11.8843 38.2059 13.1162 37.9595 14.3604 37.9598H19.7804L29.2304 47.1698H29.2804L29.3804 47.2698L29.4704 47.3398L29.5804 47.4198L29.6804 47.4798L29.7904 47.5398L29.8904 47.5998H30.0004L30.1104 47.6498H30.2204H30.3404H30.4504H30.5804H31.1604H31.2804H31.4004H31.5104H31.6304H31.7404H31.8604H31.9604L32.0804 47.5898L32.1804 47.5298L32.2904 47.4698L32.3904 47.3998L32.4904 47.3298L32.5804 47.2398C32.5804 47.2398 32.5804 47.2398 32.6404 47.1798L42.4704 37.9398H47.5404C48.9464 37.9706 50.3292 38.3047 51.5943 38.9191C52.8593 39.5335 53.9768 40.4138 54.8704 41.4998C55.6476 42.468 56.2246 43.5809 56.568 44.7741C56.9113 45.9672 57.0141 47.2166 56.8704 48.4498C56.8425 48.5318 56.8191 48.6152 56.8004 48.6998V83.9498C56.8271 84.4752 56.7467 85.0006 56.564 85.494C56.3813 85.9873 56.1002 86.4384 55.7378 86.8197C55.3753 87.2011 54.9391 87.5047 54.4556 87.7122C53.9721 87.9197 53.4515 88.0267 52.9254 88.0267C52.3993 88.0267 51.8787 87.9197 51.3952 87.7122C50.9118 87.5047 50.4755 87.2011 50.1131 86.8197C49.7506 86.4384 49.4695 85.9873 49.2868 85.494C49.1042 85.0006 49.0237 84.4752 49.0504 83.9498V76.2698V75.0398C49.0504 74.8698 49.0504 74.6998 49.0504 74.5398V60.3298C49.0504 59.6747 48.7902 59.0464 48.327 58.5832C47.8638 58.12 47.2355 57.8598 46.5804 57.8598C45.9253 57.8598 45.2971 58.12 44.8339 58.5832C44.3707 59.0464 44.1104 59.6747 44.1104 60.3298V76.1898V78.4898H17.7704L17.7104 74.8598C17.7104 74.7498 17.7104 74.6698 17.7104 74.5598V60.3298C17.7319 59.9929 17.6841 59.6551 17.5699 59.3374C17.4557 59.0197 17.2777 58.7288 17.0467 58.4826C16.8157 58.2364 16.5366 58.0402 16.2268 57.906C15.917 57.7719 15.583 57.7027 15.2454 57.7027C14.9078 57.7027 14.5738 57.7719 14.264 57.906C13.9542 58.0402 13.6752 58.2364 13.4442 58.4826C13.2132 58.7288 13.0351 59.0197 12.9209 59.3374C12.8068 59.6551 12.759 59.9929 12.7804 60.3298V83.7798C12.7699 84.8116 12.3519 85.7974 11.6176 86.5223C10.8833 87.2472 9.89225 87.6525 8.86042 87.6498C8.3579 87.6695 7.85664 87.5865 7.38726 87.406C6.91788 87.2255 6.49022 86.9511 6.13042 86.5998C5.771 86.2608 5.48519 85.8515 5.29079 85.3973C5.09639 84.9432 4.99755 84.4538 5.00042 83.9598V48.6598C5.00609 48.5765 5.00609 48.493 5.00042 48.4098C5.00042 48.0898 4.93042 47.7598 4.93042 47.4098C4.92695 46.1741 5.16717 44.9498 5.63733 43.807C6.10749 42.6642 6.79836 41.6253 7.67042 40.7498Z" fill="#6D737C"/>
<path d="M67.001 22.81H70.891V73.2C70.895 74.5 71.1549 75.7866 71.6561 76.9863C72.1573 78.1859 72.8898 79.275 73.8119 80.1915C74.734 81.1081 75.8275 81.834 77.0302 82.3279C78.2328 82.8217 79.5209 83.0739 80.821 83.07H111.821L94.791 98.34C94.5416 98.5538 94.3371 98.8151 94.1894 99.1087C94.0418 99.4022 93.954 99.7222 93.9311 100.05C93.9082 100.378 93.9506 100.707 94.056 101.018C94.1614 101.329 94.3276 101.617 94.5449 101.863C94.7622 102.109 95.0263 102.31 95.3219 102.454C95.6175 102.597 95.9387 102.681 96.2668 102.699C96.5949 102.717 96.9233 102.67 97.233 102.561C97.5428 102.451 97.8276 102.281 98.071 102.06L117.001 85.22L135.911 102.06C136.4 102.494 137.04 102.716 137.692 102.679C138.345 102.641 138.955 102.347 139.391 101.86C139.827 101.365 140.051 100.718 140.013 100.059C139.976 99.4002 139.68 98.7826 139.191 98.34L122.051 83.07H153.051C154.345 83.074 155.628 82.821 156.824 82.3257C158.02 81.8303 159.105 81.1025 160.018 80.1844C160.931 79.2663 161.652 78.1762 162.14 76.9772C162.628 75.7783 162.873 74.4944 162.861 73.2V22.81H167.001C167.671 22.7974 168.31 22.5278 168.787 22.0568C169.263 21.5858 169.541 20.9497 169.561 20.28V3.34996C169.549 3.02553 169.474 2.70656 169.339 2.41131C169.204 2.11606 169.012 1.85031 168.774 1.62927C168.537 1.40822 168.258 1.23622 167.953 1.12309C167.649 1.00996 167.325 0.957924 167.001 0.96996H67.001C66.6822 0.960615 66.3647 1.0152 66.0672 1.13049C65.7698 1.24578 65.4985 1.41944 65.2692 1.64125C65.0399 1.86306 64.8574 2.12851 64.7323 2.42198C64.6073 2.71544 64.5422 3.03097 64.541 3.34996V20.28C64.5382 20.9398 64.7943 21.5744 65.2543 22.0474C65.7143 22.5205 66.3414 22.7943 67.001 22.81ZM158.001 73.2C158.012 73.8461 157.893 74.4879 157.652 75.0875C157.411 75.6872 157.053 76.2327 156.599 76.692C156.144 77.1513 155.602 77.5151 155.005 77.762C154.408 78.0089 153.767 78.134 153.121 78.13H80.861C80.2078 78.1392 79.5591 78.0186 78.9529 77.775C78.3467 77.5314 77.7949 77.1697 77.3297 76.711C76.8644 76.2523 76.495 75.7056 76.2429 75.1029C75.9908 74.5002 75.861 73.8533 75.861 73.2V22.81H158.001V73.2ZM69.521 5.89996H164.651V17.9H69.521V5.89996Z" fill="#6D737C"/>
<path d="M87.1313 42.1899H132.591C132.928 42.2114 133.266 42.1635 133.584 42.0494C133.901 41.9352 134.192 41.7571 134.438 41.5261C134.685 41.2951 134.881 41.0161 135.015 40.7063C135.149 40.3965 135.218 40.0625 135.218 39.7249C135.218 39.3873 135.149 39.0533 135.015 38.7435C134.881 38.4337 134.685 38.1546 134.438 37.9236C134.192 37.6926 133.901 37.5146 133.584 37.4004C133.266 37.2862 132.928 37.2384 132.591 37.2599H87.1313C86.5046 37.2998 85.9168 37.5769 85.4871 38.0348C85.0575 38.4927 84.8184 39.097 84.8184 39.7249C84.8184 40.3528 85.0575 40.9571 85.4871 41.415C85.9168 41.8729 86.5046 42.15 87.1313 42.1899Z" fill="#6D737C"/>
<path d="M87.1301 52.0601H147C147.655 52.0601 148.283 51.7999 148.747 51.3367C149.21 50.8735 149.47 50.2452 149.47 49.5901C149.47 48.935 149.21 48.3068 148.747 47.8436C148.283 47.3803 147.655 47.1201 147 47.1201H87.1301C86.4751 47.1201 85.8468 47.3803 85.3836 47.8436C84.9204 48.3068 84.6602 48.935 84.6602 49.5901C84.6602 50.2452 84.9204 50.8735 85.3836 51.3367C85.8468 51.7999 86.4751 52.0601 87.1301 52.0601Z" fill="#6D737C"/>
<path d="M87.1313 61.5701H147.001C147.628 61.5302 148.216 61.2531 148.645 60.7952C149.075 60.3374 149.314 59.733 149.314 59.1051C149.314 58.4772 149.075 57.8729 148.645 57.415C148.216 56.9571 147.628 56.6801 147.001 56.6401H87.1313C86.5046 56.6801 85.9168 56.9571 85.4871 57.415C85.0575 57.8729 84.8184 58.4772 84.8184 59.1051C84.8184 59.733 85.0575 60.3374 85.4871 60.7952C85.9168 61.2531 86.5046 61.5302 87.1313 61.5701Z" fill="#6D737C"/>
</g>
<defs>
<clipPath id="clip0_1533_368">
<rect width="172.76" height="162.2" fill="white" transform="translate(0 0.5)"/>
</clipPath>
</defs>
</svg>
