<svg xmlns="http://www.w3.org/2000/svg" viewBox="0 0 223.65 50.96"><defs><style>.cls-1{fill:#002ca3;}</style></defs><title>color logo</title><g id="Layer_2" data-name="Layer 2"><g id="Layer_1-2" data-name="Layer 1"><path class="cls-1" d="M-322.64-137.07c0,9-6.06,14.51-15.86,14.51a21.59,21.59,0,0,1-13.2-4.17l3.35-6.22a14.55,14.55,0,0,0,9.91,3.79c5.79,0,9-3.09,9-8.5V-138a14.14,14.14,0,0,1-9,3.25,14.43,14.43,0,0,1-14.34-14.62A14.41,14.41,0,0,1-338.39-164a14.09,14.09,0,0,1,9,3.19v-2.38h6.77Zm-14.83-4.32a7.75,7.75,0,0,0,7.69-8,7.76,7.76,0,0,0-7.69-8,7.77,7.77,0,0,0-7.74,8,7.76,7.76,0,0,0,7.74,8" transform="translate(352.73 164.1)"/><path class="cls-1" d="M-317.61-163.15H-311v2.33a8.2,8.2,0,0,1,6.61-3.25,10.14,10.14,0,0,1,3.68.76l-3,6.81a5.09,5.09,0,0,0-2.22-.54c-3,0-4.6,2.22-4.6,6.5v15h-7.14Z" transform="translate(352.73 164.1)"/><path class="cls-1" d="M-285.74-164c8.55,0,15.32,6.44,15.32,14.61s-6.77,14.61-15.32,14.61S-301-141.23-301-149.35-294.24-164-285.74-164m0,22.62a7.76,7.76,0,0,0,7.74-8,7.76,7.76,0,0,0-7.74-8,7.8,7.8,0,0,0-7.74,8,7.8,7.8,0,0,0,7.74,8" transform="translate(352.73 164.1)"/><polygon class="cls-1" points="83.22 0.95 90.96 0.95 96.65 18.86 102.49 0.95 109.26 0.95 115.05 18.81 120.62 0.95 127.88 0.95 118.67 28.55 111.85 28.55 105.74 10.31 99.73 28.55 92.86 28.55 83.22 0.95"/><path class="cls-1" d="M-187.59-151.1a46.47,46.47,0,0,1-11.36,12.41,23.46,23.46,0,0,1-14,4.26,14.14,14.14,0,0,1-8.33-2.73c-2.56-1.82-3.85-4.52-3.85-8.11q0-6.49,4.9-12.66a15.22,15.22,0,0,1,12.44-6.17,9.67,9.67,0,0,1,6.69,2.17,6.91,6.91,0,0,1,2.43,5.38q0,4.94-4.71,7.47a19.21,19.21,0,0,1-9.19,2.54,17,17,0,0,1-3.1-.26,10.77,10.77,0,0,1-2.36-.64v.75a5.11,5.11,0,0,0,1.68,3.89,6.31,6.31,0,0,0,4.45,1.57A16.26,16.26,0,0,0-201.23-145a41.93,41.93,0,0,0,8.41-9.6Zm-24.66-1.79a12.15,12.15,0,0,0,4.26-.78c1.39-.53,2.09-1.29,2.09-2.28a1.53,1.53,0,0,0-.67-1.35,3,3,0,0,0-1.72-.45,7.38,7.38,0,0,0-4,1.24,12.85,12.85,0,0,0-3.36,3.1,12.39,12.39,0,0,0,1.79.37,12.4,12.4,0,0,0,1.65.15" transform="translate(352.73 164.1)"/><path class="cls-1" d="M-168.24-154.31a11.42,11.42,0,0,1-3.4,8.22,15,15,0,0,1-8.18,4.41v.07a12.66,12.66,0,0,1,2,2.21,11.29,11.29,0,0,1,1.38,2.73,26.62,26.62,0,0,0,11.06-8q4.41-5.41,7.47-9.9l5.23,3.51a65.36,65.36,0,0,1-9.45,12,38.72,38.72,0,0,1-13.56,8.74,17.53,17.53,0,0,1-6.39,12.11q-5.86,5.16-12.52,5.15a8.32,8.32,0,0,1-6.16-2.35,7.7,7.7,0,0,1-2.36-5.64,9.17,9.17,0,0,1,5.34-8.59,62.42,62.42,0,0,1,14-5,7.59,7.59,0,0,0-1.42-3.21,5.85,5.85,0,0,0-3.07-1.95l1.42-6.27a12,12,0,0,0,7.51-2.17,6.27,6.27,0,0,0,2.8-5,3.1,3.1,0,0,0-1-2.39,3.79,3.79,0,0,0-2.69-.9,5.67,5.67,0,0,0-4.14,1.76,39.4,39.4,0,0,0-3.85,4.59l-5.16-3.51a29.42,29.42,0,0,1,6.2-7.51,12.41,12.41,0,0,1,8.22-2.8,11.22,11.22,0,0,1,7.66,2.65,9,9,0,0,1,3,7.14m-25.48,34.52a11.14,11.14,0,0,0,5.71-2.13,9.72,9.72,0,0,0,4.3-6.16,51.73,51.73,0,0,0-8.82,2.91q-3.21,1.5-3.21,3.22a2.08,2.08,0,0,0,.6,1.6,2,2,0,0,0,1.42.56" transform="translate(352.73 164.1)"/><path class="cls-1" d="M-134.09-122.63a18.93,18.93,0,0,0-4.93-2.46,29.48,29.48,0,0,0-5.61-1.35,31.3,31.3,0,0,1-7.28,9.34,15,15,0,0,1-10.13,4,8.32,8.32,0,0,1-6.16-2.35,7.7,7.7,0,0,1-2.36-5.64q0-6.59,7.55-9.19a46.31,46.31,0,0,1,14.8-2.69c.35-.8.78-1.73,1.31-2.8s1.1-2.41,1.75-4c.15-.35.3-.71.45-1.09a10.64,10.64,0,0,0,.37-1.08l-.15-.08a25.37,25.37,0,0,1-4.63,4,11.38,11.38,0,0,1-6.8,2.39,6.46,6.46,0,0,1-4.48-1.68q-1.87-1.68-1.87-5.34,0-4.26,3.4-10.73t6.16-10.72l6.51,3.29q-2.4,3.74-5.38,8.89c-2,3.44-3,5.88-3,7.32a2,2,0,0,0,.48,1.42,1.79,1.79,0,0,0,1.38.53q3.51,0,8.34-6.35a53.84,53.84,0,0,0,7-11.59v.08c.25-.65.51-1.27.79-1.87l.78-1.72,6.73,3.21q-3,5.46-7.06,14.35t-5.94,14a36.94,36.94,0,0,1,6.53,1.64,23.94,23.94,0,0,1,5.12,2.4Zm-27,2.84a10.63,10.63,0,0,0,4.33-1.38,15.24,15.24,0,0,0,5.46-5.42,35.33,35.33,0,0,0-8.26,1.42c-2.36.75-3.55,1.82-3.55,3.22a2.08,2.08,0,0,0,.6,1.6,2,2,0,0,0,1.42.56" transform="translate(352.73 164.1)"/></g></g></svg>