<svg width="182" height="175" viewBox="0 0 182 175" fill="none" xmlns="http://www.w3.org/2000/svg">
<g clip-path="url(#clip0_1533_358)">
<path fill-rule="evenodd" clip-rule="evenodd" d="M50.18 141.55H14.18C10.4224 141.534 6.8233 140.034 4.16716 137.376C1.51103 134.718 0.0131608 131.118 0 127.36L0 49.96C0.013177 46.2006 1.51242 42.599 4.17071 39.9407C6.829 37.2824 10.4306 35.7832 14.19 35.77H20.63V10.19C20.6287 8.91796 20.8781 7.65814 21.364 6.48255C21.8499 5.30697 22.5627 4.23867 23.4617 3.33874C24.3607 2.43881 25.4282 1.72489 26.6033 1.2378C27.7784 0.750711 29.038 0.499999 30.31 0.5L33 0.5C35.5666 0.505274 38.0267 1.5265 39.8425 3.34043C41.6583 5.15435 42.6821 7.61341 42.69 10.18V35.77H97.83C98.1324 35.4438 98.5052 35.1907 98.92 35.03L104.07 33.03C104.848 30.2893 105.942 27.6483 107.33 25.16L105.09 20.16C104.849 19.6189 104.778 19.0172 104.887 18.435C104.996 17.8527 105.28 17.3174 105.7 16.9L113.25 9.34C113.67 8.92001 114.207 8.63695 114.79 8.52807C115.374 8.41919 115.977 8.48958 116.52 8.73L121.52 10.97C124.003 9.58157 126.641 8.49071 129.38 7.72L131.38 2.56C131.599 2.00309 131.981 1.52457 132.474 1.18598C132.968 0.847386 133.551 0.664207 134.15 0.66H144.84C145.434 0.661235 146.014 0.842495 146.503 1.17989C146.992 1.51729 147.368 1.99498 147.58 2.55L149.58 7.7C152.318 8.47246 154.956 9.56324 157.44 10.95L162.44 8.71C162.983 8.46959 163.586 8.39919 164.17 8.50807C164.753 8.61695 165.29 8.90001 165.71 9.32L173.27 16.88C173.69 17.2974 173.974 17.8327 174.083 18.415C174.192 18.9972 174.121 19.5989 173.88 20.14L171.64 25.14C173.036 27.6243 174.13 30.2663 174.9 33.01L180.04 35.01C180.594 35.2226 181.07 35.5984 181.406 36.0877C181.742 36.577 181.921 37.1566 181.92 37.75V48.5C181.921 49.0934 181.742 49.673 181.406 50.1623C181.07 50.6516 180.594 51.0274 180.04 51.24L174.9 53.24C174.119 55.9767 173.025 58.6141 171.64 61.1L173.88 66.1C174.121 66.6411 174.192 67.2428 174.083 67.825C173.974 68.4073 173.69 68.9426 173.27 69.36L165.71 76.92C165.292 77.3391 164.757 77.6218 164.175 77.7307C163.593 77.8395 162.991 77.7696 162.45 77.53L157.45 75.3C155.784 76.2297 154.049 77.0287 152.26 77.69V127.38C152.241 131.148 150.73 134.755 148.057 137.411C145.385 140.067 141.768 141.555 138 141.55H102V153.55H116.19C123.24 153.55 128.72 158.55 128.72 164.14V171.81C128.72 172.587 128.411 173.332 127.862 173.882C127.312 174.431 126.567 174.74 125.79 174.74H26.4C25.622 174.74 24.8757 174.432 24.3246 173.882C23.7736 173.333 23.4626 172.588 23.46 171.81V164.14C23.46 158.51 28.94 153.55 35.99 153.55H50.18V141.55ZM20.63 41.64H14.19C11.985 41.6453 9.87187 42.5235 8.31271 44.0827C6.75355 45.6419 5.87528 47.755 5.87 49.96V127.36C5.8779 129.564 6.75701 131.676 8.3156 133.234C9.8742 134.793 11.9858 135.672 14.19 135.68H138C140.204 135.672 142.316 134.793 143.874 133.234C145.433 131.676 146.312 129.564 146.32 127.36V85.13C145.861 85.4065 145.336 85.555 144.8 85.56H142.8V119.66C142.8 120.046 142.724 120.427 142.576 120.784C142.428 121.14 142.211 121.463 141.938 121.735C141.665 122.008 141.341 122.223 140.984 122.37C140.628 122.516 140.246 122.591 139.86 122.59H12.34C11.5629 122.59 10.8177 122.281 10.2682 121.732C9.7187 121.182 9.41 120.437 9.41 119.66V49.66C9.41265 48.4683 9.88792 47.3262 10.7316 46.4845C11.5752 45.6427 12.7183 45.17 13.91 45.17H20.63V41.64ZM96.18 141.55H56.05V153.55H96.18V141.55ZM26.5 21V75.84H36.83V21H26.5ZM36.84 15.14V10.14C36.8217 9.13375 36.409 8.17492 35.6908 7.46985C34.9727 6.76478 34.0064 6.36983 33 6.37H30.31C29.8098 6.36867 29.3142 6.46639 28.8519 6.65751C28.3896 6.84864 27.9698 7.12939 27.6165 7.48358C27.2632 7.83776 26.9836 8.25838 26.7937 8.72117C26.6038 9.18396 26.5074 9.67977 26.51 10.18V15.18L36.84 15.14ZM97 41.64H42.7V45.19H97V41.64ZM137 85.56H134.2C133.605 85.5602 133.025 85.3794 132.536 85.0419C132.046 84.7043 131.671 84.2258 131.46 83.67L129.46 78.53C126.718 77.7559 124.076 76.6617 121.59 75.27L116.59 77.51C116.047 77.7504 115.444 77.8208 114.86 77.7119C114.277 77.603 113.74 77.32 113.32 76.9L105.77 69.34C105.351 68.9219 105.068 68.3866 104.959 67.8046C104.85 67.2227 104.92 66.6214 105.16 66.08L107.4 61.08C106.011 58.596 104.917 55.9581 104.14 53.22L98.99 51.22L98.68 51.08H42.7V78.77C42.6984 79.2854 42.5641 79.7916 42.31 80.24L34.21 94.24C33.9518 94.6864 33.5807 95.0571 33.134 95.3147C32.6873 95.5724 32.1807 95.7081 31.665 95.7081C31.1493 95.7081 30.6427 95.5724 30.196 95.3147C29.7493 95.0571 29.3782 94.6864 29.12 94.24L21.02 80.24C20.7633 79.7927 20.6288 79.2857 20.63 78.77V51.06H15.28V116.73H137V85.56ZM34.69 81.71H28.69L31.69 86.94L34.69 81.71ZM29.33 168.89H122.9V164.15C122.9 161.35 119.75 159.43 116.24 159.43H36C32.49 159.43 29.34 161.35 29.34 164.15L29.33 168.89ZM144.62 11.21L142.82 6.5H136.16L134.36 11.18C134.188 11.6245 133.911 12.0206 133.552 12.3342C133.193 12.6478 132.764 12.8694 132.3 12.98C129.12 13.7359 126.082 14.9951 123.3 16.71C122.891 16.9575 122.43 17.1039 121.953 17.137C121.476 17.17 120.999 17.0888 120.56 16.9L115.99 14.9L111.28 19.61L113.28 24.19C113.472 24.6264 113.555 25.1029 113.522 25.5785C113.489 26.054 113.341 26.5145 113.09 26.92C111.372 29.7017 110.109 32.74 109.35 35.92C109.233 36.3796 109.009 36.8051 108.697 37.1614C108.384 37.5178 107.991 37.7949 107.55 37.97L102.88 39.76V46.5L107.55 48.29C107.985 48.4602 108.374 48.7297 108.687 49.0769C108.999 49.4241 109.226 49.8395 109.35 50.29C110.108 53.4703 111.371 56.5088 113.09 59.29C113.341 59.6955 113.489 60.156 113.522 60.6315C113.555 61.1071 113.472 61.5836 113.28 62.02L111.28 66.6L116 71.33L120.58 69.33C121.014 69.1382 121.488 69.0544 121.962 69.0857C122.436 69.1171 122.895 69.2626 123.3 69.51C126.084 71.2234 129.122 72.4857 132.3 73.25C132.764 73.3606 133.193 73.5822 133.552 73.8958C133.911 74.2094 134.188 74.6055 134.36 75.05L136.15 79.72H142.81L144.61 75.05C144.782 74.6055 145.059 74.2094 145.418 73.8958C145.777 73.5822 146.206 73.3606 146.67 73.25C149.85 72.4941 152.888 71.2349 155.67 69.52C156.075 69.2685 156.536 69.1198 157.011 69.0867C157.487 69.0536 157.964 69.1371 158.4 69.33L162.98 71.33L167.69 66.62L165.69 62.04C165.498 61.6058 165.414 61.1316 165.446 60.6579C165.477 60.1842 165.623 59.7252 165.87 59.32C167.583 56.536 168.846 53.4984 169.61 50.32C169.721 49.8565 169.942 49.4268 170.256 49.0679C170.569 48.709 170.965 48.4318 171.41 48.26L176.07 46.5V39.78L171.4 37.99C170.955 37.8182 170.559 37.541 170.246 37.1821C169.932 36.8232 169.711 36.3935 169.6 35.93C168.842 32.7497 167.579 29.7112 165.86 26.93C165.616 26.5218 165.472 26.0614 165.441 25.5867C165.409 25.112 165.491 24.6367 165.68 24.2L167.68 19.62L163 14.89L158.42 16.89C157.984 17.082 157.507 17.1651 157.032 17.132C156.556 17.0989 156.096 16.9506 155.69 16.7C152.907 14.9869 149.869 13.7278 146.69 12.97C146.226 12.8594 145.797 12.6378 145.438 12.3242C145.079 12.0106 144.802 11.6145 144.63 11.17L144.62 11.21ZM139.48 16.96C144.653 16.958 149.71 18.4903 154.012 21.3629C158.314 24.2355 161.667 28.3195 163.648 33.0982C165.628 37.8769 166.147 43.1356 165.138 48.2092C164.129 53.2827 161.639 57.9431 157.981 61.6008C154.323 65.2586 149.663 67.7493 144.589 68.758C139.516 69.7667 134.257 69.248 129.478 67.2675C124.7 65.2871 120.616 61.9338 117.743 57.6319C114.87 53.33 113.338 48.2728 113.34 43.1C113.34 36.1672 116.094 29.5184 120.996 24.6162C125.898 19.714 132.547 16.96 139.48 16.96ZM159.65 45.29C159.727 44.5626 159.764 43.8315 159.76 43.1C159.642 37.8007 157.455 32.7581 153.665 29.0518C149.876 25.3456 144.786 23.2703 139.485 23.2703C134.184 23.2703 129.094 25.3456 125.305 29.0518C121.515 32.7581 119.328 37.8007 119.21 43.1C119.208 44.138 119.289 45.1746 119.45 46.2L129.64 38.5C130.23 38.0405 130.974 37.8248 131.718 37.8974C132.462 37.9699 133.15 38.3252 133.64 38.89L138.74 44.63L148.5 35.73C148.801 35.4515 149.158 35.2397 149.547 35.1084C149.936 34.9771 150.348 34.9293 150.757 34.968C151.165 35.0066 151.561 35.131 151.918 35.333C152.275 35.5349 152.586 35.8099 152.83 36.14L159.65 45.29ZM121.33 52.14C123.002 55.5066 125.576 58.3421 128.767 60.3296C131.957 62.3172 135.637 63.3786 139.396 63.3952C143.154 63.4118 146.844 62.383 150.051 60.4236C153.259 58.4643 155.859 55.6517 157.56 52.3L150 42.23L136.86 54.23C136.576 54.4894 136.243 54.6902 135.881 54.821C135.519 54.9518 135.135 55.0101 134.751 54.9924C134.366 54.9748 133.989 54.8816 133.641 54.7182C133.292 54.5548 132.979 54.3243 132.72 54.04C132.461 53.7557 132.26 53.4231 132.129 53.0612C131.998 52.6992 131.94 52.3151 131.958 51.9306C131.975 51.5462 132.068 51.169 132.232 50.8206C132.395 50.4722 132.626 50.1594 132.91 49.9L134.34 48.59L131 44.8L121.33 52.14ZM138.72 37.94C138.005 37.9242 137.31 37.6975 136.724 37.2883C136.137 36.8791 135.684 36.3056 135.422 35.6399C135.16 34.9742 135.101 34.246 135.251 33.5467C135.402 32.8474 135.756 32.2081 136.269 31.7093C136.781 31.2104 137.43 30.8741 138.133 30.7427C138.836 30.6112 139.563 30.6905 140.221 30.9705C140.879 31.2505 141.44 31.7187 141.833 32.3164C142.226 32.9142 142.434 33.6147 142.43 34.33C142.414 35.2999 142.015 36.2241 141.32 36.9005C140.625 37.577 139.69 37.9507 138.72 37.94ZM75.91 56.1C81.4059 56.102 86.7778 57.7335 91.3466 60.7883C95.9153 63.8431 99.4757 68.184 101.577 73.2622C103.679 78.3403 104.228 83.9276 103.155 89.3177C102.081 94.7078 99.4339 99.6585 95.547 103.544C91.6601 107.43 86.7083 110.075 81.3179 111.147C75.9274 112.218 70.3403 111.667 65.2629 109.564C60.1855 107.46 55.8459 103.898 52.7928 99.3283C49.7396 94.7584 48.11 89.3859 48.11 83.89C48.1153 76.5195 51.0462 69.4526 56.2589 64.2418C61.4715 59.031 68.5395 56.1026 75.91 56.1ZM75.91 61.97C71.5718 61.968 67.3305 63.2528 63.7226 65.6617C60.1147 68.0706 57.3023 71.4955 55.6412 75.5031C53.9802 79.5107 53.545 83.9209 54.3909 88.1759C55.2367 92.4308 57.3256 96.3393 60.3932 99.4069C63.4607 102.474 67.3692 104.563 71.6241 105.409C75.8791 106.255 80.2893 105.82 84.2969 104.159C88.3045 102.498 91.7294 99.6853 94.1383 96.0774C96.5472 92.4695 97.832 88.2282 97.83 83.89C97.8274 78.0773 95.5171 72.5034 91.4069 68.3931C87.2966 64.2829 81.7227 61.9727 75.91 61.97ZM87.91 79.5C88.6847 79.9465 89.3281 80.5892 89.7755 81.3633C90.2228 82.1375 90.4583 83.0159 90.4583 83.91C90.4583 84.8041 90.2228 85.6825 89.7755 86.4567C89.3281 87.2308 88.6847 87.8735 87.91 88.32L73.54 96.6C72.7655 97.0449 71.8877 97.2785 70.9945 97.2775C70.1013 97.2766 69.224 97.041 68.4504 96.5945C67.6768 96.148 67.0341 95.5061 66.5865 94.7331C66.1389 93.9602 65.9022 93.0832 65.9 92.19V75.59C65.9022 74.6968 66.1389 73.8198 66.5865 73.0469C67.0341 72.2739 67.6768 71.632 68.4504 71.1855C69.224 70.739 70.1013 70.5034 70.9945 70.5025C71.8877 70.5015 72.7655 70.7351 73.54 71.18L87.91 79.5ZM71.77 76.93V90.85L83.77 83.85L71.77 76.93Z" fill="white"/>
</g>
<defs>
<clipPath id="clip0_1533_358">
<rect width="181.93" height="174.25" fill="white" transform="translate(0 0.5)"/>
</clipPath>
</defs>
</svg>
