<svg width="149" height="179" viewBox="0 0 149 179" fill="none" xmlns="http://www.w3.org/2000/svg">
<g clip-path="url(#clip0_1533_388)">
<path d="M0.769586 158.88C0.0175279 161.146 -0.185718 163.558 0.176573 165.918C0.538864 168.278 1.45634 170.518 2.8535 172.454C4.25066 174.39 6.08758 175.967 8.2131 177.055C10.3386 178.142 12.692 178.71 15.0796 178.71H133.41C135.39 178.711 137.351 178.322 139.18 177.564C141.01 176.807 142.672 175.696 144.072 174.295C145.472 172.895 146.582 171.232 147.338 169.402C148.094 167.571 148.482 165.61 148.48 163.63C148.478 162.016 148.221 160.413 147.72 158.88L136.58 125.5C135.793 123.217 134.841 120.994 133.73 118.85L134.54 115.77C134.841 114.627 134.915 113.435 134.756 112.264C134.597 111.092 134.209 109.963 133.614 108.942C133.018 107.92 132.228 107.026 131.287 106.31C130.346 105.594 129.273 105.071 128.13 104.77C127.385 104.578 126.619 104.481 125.85 104.48H122.54C113.792 96.8242 102.564 92.6029 90.9396 92.5999H89.0996V90.4299C94.451 87.625 98.9927 83.4931 102.29 78.4299C103.992 74.7142 105.077 70.7453 105.5 66.6799C107.617 66.078 109.481 64.8027 110.809 63.0471C112.137 61.2915 112.857 59.1512 112.86 56.9499V39.1099C112.697 28.9762 108.556 19.3127 101.332 12.204C94.1085 5.09538 84.3796 1.11133 74.2446 1.11133C64.1096 1.11133 54.3807 5.09538 47.1567 12.204C39.9327 19.3127 35.7927 28.9762 35.6296 39.1099V56.9299C35.6332 59.1325 36.3547 61.2738 37.6845 63.0296C39.0144 64.7853 40.8804 66.0598 42.9996 66.6599C43.4193 70.7247 44.5002 74.6936 46.1996 78.4099C49.4965 83.4731 54.0382 87.605 59.3896 90.4099V92.5599H57.5496C45.9347 92.5916 34.7253 96.8338 25.9996 104.5H22.6396C20.2526 104.5 17.9635 105.448 16.2756 107.136C14.5878 108.824 13.6396 111.113 13.6396 113.5C13.6396 114.273 13.7404 115.043 13.9396 115.79L14.7496 118.87C13.6409 121.007 12.6917 123.223 11.9096 125.5L0.769586 158.88ZM26.7696 172.77V166.83H121.82V172.77H26.7696ZM142.13 160.77C142.507 161.91 142.656 163.113 142.568 164.31C142.48 165.508 142.157 166.676 141.617 167.749C141.078 168.821 140.332 169.777 139.423 170.561C138.514 171.346 137.46 171.943 136.32 172.32C135.397 172.627 134.432 172.782 133.46 172.78H127.76V166.84C127.755 165.418 127.24 164.044 126.307 162.971C125.375 161.897 124.087 161.194 122.68 160.99L131.29 128.24L142.13 160.77ZM112.47 104.5H85.9996C87.3717 102.737 88.3257 100.685 88.7896 98.4999H90.9296C98.5198 98.5168 105.964 100.59 112.47 104.5ZM74.2396 6.4999C82.9027 6.50784 91.2089 9.95208 97.3355 16.0769C103.462 22.2017 106.909 30.5068 106.92 39.1699V47.7899C106.452 47.5702 105.967 47.3896 105.47 47.2499C104.949 44.4583 103.54 41.9097 101.453 39.9835C99.3668 38.0572 96.7138 36.8564 93.8896 36.5599C87.9785 35.7761 82.3558 33.5318 77.5296 30.0299C76.5665 29.3659 75.4244 29.0104 74.2546 29.0104C73.0848 29.0104 71.9427 29.3659 70.9796 30.0299C66.2026 33.5598 60.6014 35.8078 54.7096 36.5599C51.8652 36.8159 49.1822 37.9937 47.0686 39.9142C44.9549 41.8348 43.5262 44.393 42.9996 47.1999C42.5066 47.339 42.0251 47.5162 41.5596 47.7299V39.1099C41.5702 30.4468 45.017 22.1417 51.1436 16.0169C57.2703 9.89208 65.5765 6.44784 74.2396 6.4399V6.4999ZM51.4996 75.7299C49.8887 71.9818 48.9413 67.9823 48.6996 63.9099C48.6537 63.1459 48.3174 62.4283 47.7597 61.904C47.202 61.3798 46.465 61.0885 45.6996 61.0899C45.1368 61.1175 44.5743 61.0305 44.0461 60.8342C43.518 60.6378 43.0352 60.3362 42.6271 59.9477C42.219 59.5591 41.8941 59.0917 41.6722 58.5739C41.4502 58.056 41.3357 57.4984 41.3357 56.9349C41.3357 56.3714 41.4502 55.8138 41.6722 55.2959C41.8941 54.778 42.219 54.3106 42.6271 53.9221C43.0352 53.5336 43.518 53.232 44.0461 53.0356C44.5743 52.8393 45.1368 52.7523 45.6996 52.7799C46.4952 52.7799 47.2583 52.4638 47.8209 51.9012C48.3835 51.3386 48.6996 50.5755 48.6996 49.7799C48.6989 47.9748 49.3652 46.2331 50.5705 44.8894C51.7758 43.5457 53.4351 42.6947 55.2296 42.4999C62.0753 41.6488 68.5854 39.0448 74.1296 34.9399C79.7955 39.0416 86.4076 41.6424 93.3496 42.4999C95.1383 42.7031 96.7877 43.5635 97.9777 44.9143C99.1678 46.2651 99.8135 48.0098 99.7896 49.8099C99.7896 50.6055 100.106 51.3686 100.668 51.9312C101.231 52.4938 101.994 52.8099 102.79 52.8099C103.856 52.8622 104.862 53.3229 105.598 54.0963C106.335 54.8698 106.746 55.8969 106.746 56.9649C106.746 58.0329 106.335 59.06 105.598 59.8335C104.862 60.6069 103.856 61.0675 102.79 61.1199C102.024 61.1185 101.287 61.4098 100.729 61.934C100.172 62.4583 99.8355 63.1759 99.7896 63.9399C99.5426 68.0008 98.5989 71.989 96.9996 75.7299C94.0996 81.4399 80.6996 89.6099 74.2396 89.6099C67.7796 89.6099 54.3896 81.4399 51.4996 75.7299ZM74.2396 95.5499C77.322 95.3878 80.3471 94.6518 83.1596 93.3799V95.5499C83.0821 97.8626 82.1089 100.055 80.4455 101.663C78.7821 103.272 76.5586 104.171 74.2446 104.171C71.9306 104.171 69.7071 103.272 68.0437 101.663C66.3802 100.055 65.4071 97.8626 65.3296 95.5499V93.3799C68.1389 94.6508 71.1605 95.3868 74.2396 95.5499ZM57.5496 98.4999H59.6896C60.1416 100.682 61.0818 102.733 62.4396 104.5H35.9996C42.5098 100.592 49.9564 98.5185 57.5496 98.4999ZM20.2296 111.59C20.5111 111.218 20.8755 110.916 21.2939 110.71C21.7122 110.503 22.173 110.397 22.6396 110.4H125.85C126.645 110.4 127.408 110.716 127.971 111.279C128.534 111.841 128.85 112.604 128.85 113.4C128.851 113.66 128.818 113.919 128.75 114.17L116.47 160.85H31.9996L19.6996 114.21C19.5794 113.762 19.5647 113.292 19.6567 112.838C19.7486 112.383 19.9447 111.956 20.2296 111.59ZM25.8696 160.98C24.4611 161.184 23.1725 161.886 22.2383 162.96C21.3041 164.033 20.7865 165.407 20.7796 166.83V172.77H15.0796C12.6555 172.77 10.3307 171.807 8.61663 170.093C6.90255 168.379 5.93959 166.054 5.93959 163.63C5.93963 162.654 6.09837 161.685 6.40959 160.76L17.2396 128.23L25.8696 160.98Z" fill="white"/>
<path d="M74.2387 151.98C82.4287 151.98 89.0887 146.65 89.0887 140.1C89.0887 133.55 82.4287 128.22 74.2387 128.22C66.0487 128.22 59.3887 133.55 59.3887 140.1C59.3887 146.65 66.0487 151.98 74.2387 151.98ZM74.2387 134.16C79.0687 134.16 83.1487 136.88 83.1487 140.1C83.1487 143.32 79.0687 146.04 74.2387 146.04C69.4087 146.04 65.3287 143.32 65.3287 140.1C65.3287 136.88 69.4087 134.16 74.2387 134.16Z" fill="white"/>
</g>
<defs>
<clipPath id="clip0_1533_388">
<rect width="148.48" height="178.21" fill="white" transform="translate(0 0.5)"/>
</clipPath>
</defs>
</svg>
