<svg width="176" height="176" viewBox="0 0 176 176" fill="none" xmlns="http://www.w3.org/2000/svg">
<g clip-path="url(#clip0_1533_383)">
<path d="M84.6103 123.03C84.6103 123.804 84.3027 124.547 83.7551 125.095C83.2075 125.642 82.4647 125.95 81.6903 125.95H75.8603C75.4631 125.973 75.0654 125.915 74.6915 125.779C74.3176 125.643 73.9755 125.432 73.686 125.159C73.3966 124.886 73.166 124.557 73.0084 124.192C72.8508 123.826 72.7695 123.433 72.7695 123.035C72.7695 122.637 72.8508 122.243 73.0084 121.878C73.166 121.513 73.3966 121.184 73.686 120.911C73.9755 120.638 74.3176 120.427 74.6915 120.291C75.0654 120.155 75.4631 120.097 75.8603 120.12H81.6903C82.0733 120.119 82.4528 120.193 82.807 120.339C83.1612 120.484 83.4832 120.698 83.7545 120.969C84.0257 121.239 84.241 121.56 84.3878 121.914C84.5347 122.268 84.6103 122.647 84.6103 123.03ZM175 44.2699V140.36C175.024 141.509 174.821 142.652 174.404 143.722C173.986 144.793 173.361 145.771 172.565 146.6C171.769 147.43 170.818 148.094 169.765 148.555C168.713 149.017 167.579 149.266 166.43 149.29H113.78C112.625 149.294 111.481 149.069 110.413 148.629C109.346 148.188 108.376 147.541 107.56 146.724C106.743 145.906 106.097 144.936 105.658 143.868C105.218 142.799 104.995 141.655 105 140.5V137.58H96.2803V158H116.7C118.971 158.077 121.123 159.033 122.702 160.666C124.282 162.3 125.164 164.483 125.164 166.755C125.164 169.027 124.282 171.21 122.702 172.844C121.123 174.477 118.971 175.433 116.7 175.51H37.9303C35.6595 175.433 33.5074 174.477 31.9282 172.844C30.349 171.21 29.4662 169.027 29.4662 166.755C29.4662 164.483 30.349 162.3 31.9282 160.666C33.5074 159.033 35.6595 158.077 37.9303 158H61.2703V137.62H8.14031C6.50093 137.579 4.91196 137.045 3.58104 136.087C2.25012 135.129 1.23917 133.792 0.680307 132.25C0.221537 131.183 -0.0100419 130.032 0.000307051 128.87V23.8699C-0.0701432 21.632 0.745256 19.4566 2.26938 17.8164C3.7935 16.1762 5.90324 15.2036 8.14031 15.1099H51.9003L61.5303 1.72988C61.7839 1.37103 62.1153 1.07405 62.4997 0.86108C62.8841 0.64811 63.3116 0.524644 63.7503 0.499884C64.1985 0.466697 64.6477 0.548475 65.0555 0.737472C65.4632 0.926469 65.816 1.21643 66.0803 1.57988L76.8203 14.5799L79.0003 12.8799C80.7744 11.4677 83.0274 10.7994 85.2846 11.0158C87.5418 11.2322 89.6268 12.3164 91.1003 14.0399C91.3903 14.4199 91.6303 14.7699 91.8303 15.0899H149.4C151.638 15.181 153.75 16.1528 155.274 17.7936C156.799 19.4344 157.613 21.6113 157.54 23.8499V35.4999H166.29C168.607 35.5105 170.826 36.4398 172.459 38.0839C174.092 39.728 175.006 41.9527 175 44.2699ZM110.82 128.87H169.17V55.9399H110.86L110.82 128.87ZM166.25 41.3499H113.78C113.006 41.3499 112.263 41.6575 111.716 42.2051C111.168 42.7527 110.86 43.4955 110.86 44.2699V50.0999H169.21V44.2699C169.21 43.4955 168.903 42.7527 168.355 42.2051C167.807 41.6575 167.065 41.3499 166.29 41.3499H166.25ZM82.6203 17.4299L80.5203 19.1199L84.0003 23.3499L86.1803 21.5699C86.6299 21.2476 86.9679 20.7931 87.1471 20.2698C87.3264 19.7464 87.338 19.1802 87.1803 18.6499C87.1414 18.4795 87.0809 18.3149 87.0003 18.1599C86.8837 17.9569 86.7569 17.76 86.6203 17.5699C86.0968 17.0415 85.3914 16.7328 84.6481 16.7068C83.9047 16.6807 83.1795 16.9394 82.6203 17.4299ZM36.5303 46.4299L48.2003 60.4299L91.5503 41.5799L81.4303 29.2999L64.0003 8.20988L36.5303 46.4299ZM23.6103 57.7199C21.8597 59.1256 20.7203 61.1536 20.4303 63.3799C20.3182 64.4702 20.4222 65.5719 20.7362 66.622C21.0502 67.6722 21.5681 68.6501 22.2603 69.4999C22.9723 70.3642 23.8479 71.0795 24.8369 71.6047C25.8259 72.13 26.9089 72.4548 28.0237 72.5607C29.1385 72.6667 30.2632 72.5515 31.3334 72.2219C32.4036 71.8923 33.3983 71.3546 34.2603 70.6399L43.0003 63.5499L32.3003 50.5999L23.6103 57.7199ZM42.4803 71.4999L55.0003 86.7099C55.4863 87.2578 56.1617 87.6015 56.8907 87.672C57.6196 87.7425 58.3483 87.5345 58.9303 87.0899C59.4905 86.6372 59.8482 85.9808 59.9251 85.2646C60.0019 84.5485 59.7916 83.8312 59.3403 83.2699L46.8303 68.0399L42.4803 71.4999ZM5.84031 23.8499V108.5H105V44.2699C104.999 43.117 105.225 41.9752 105.666 40.9099C106.107 39.8446 106.754 38.8768 107.57 38.0621C108.385 37.2473 109.354 36.6016 110.42 36.1619C111.485 35.7222 112.627 35.4973 113.78 35.4999H151.71V23.8499C151.762 23.1622 151.552 22.4803 151.125 21.9395C150.697 21.3987 150.081 21.0383 149.4 20.9299H93.0003C92.6034 22.9804 91.4861 24.8213 89.8503 26.1199L87.7203 27.8399L98.4303 40.8399C98.6737 41.1381 98.8558 41.4816 98.966 41.8505C99.0762 42.2194 99.1123 42.6064 99.0724 42.9893C99.0324 43.3722 98.9171 43.7435 98.7331 44.0817C98.5491 44.4199 98.3001 44.7183 98.0003 44.9599C97.7876 45.1421 97.5481 45.2905 97.2903 45.3999L51.9303 65.0999L63.8603 79.6799C64.5702 80.5551 65.1008 81.5616 65.4217 82.6418C65.7426 83.7221 65.8476 84.855 65.7306 85.9759C65.6136 87.0967 65.2769 88.1835 64.7398 89.1743C64.2027 90.165 63.4757 91.0402 62.6003 91.7499C61.0562 92.9771 59.1427 93.6467 57.1703 93.6499C55.8894 93.6569 54.6232 93.3778 53.464 92.8328C52.3048 92.2878 51.282 91.4908 50.4703 90.4999L37.9303 75.1899C36.4858 76.3718 34.8226 77.2576 33.0357 77.7967C31.2488 78.3358 29.3733 78.5177 27.5161 78.332C25.6589 78.1463 23.8565 77.5966 22.2118 76.7143C20.5671 75.832 19.1122 74.6344 17.9303 73.1899C16.7484 71.7453 15.8626 70.0822 15.3235 68.2953C14.7844 66.5084 14.6025 64.6328 14.7882 62.7757C14.9739 60.9185 15.5236 59.1161 16.4059 57.4714C17.2882 55.8266 18.4858 54.3718 19.9303 53.1899L30.7203 44.4399L47.6403 20.9299H8.14031C7.45905 21.0362 6.84325 21.3963 6.4166 21.938C5.98996 22.4796 5.78408 23.1627 5.84031 23.8499ZM116.7 163.85H37.9303C37.5331 163.827 37.1354 163.885 36.7615 164.021C36.3876 164.157 36.0455 164.368 35.756 164.641C35.4666 164.914 35.236 165.243 35.0784 165.608C34.9208 165.973 34.8395 166.367 34.8395 166.765C34.8395 167.163 34.9208 167.556 35.0784 167.922C35.236 168.287 35.4666 168.616 35.756 168.889C36.0455 169.162 36.3876 169.373 36.7615 169.509C37.1354 169.645 37.5331 169.703 37.9303 169.68H116.7C117.097 169.703 117.495 169.645 117.869 169.509C118.243 169.373 118.585 169.162 118.875 168.889C119.164 168.616 119.395 168.287 119.552 167.922C119.71 167.556 119.791 167.163 119.791 166.765C119.791 166.367 119.71 165.973 119.552 165.608C119.395 165.243 119.164 164.914 118.875 164.641C118.585 164.368 118.243 164.157 117.869 164.021C117.495 163.885 117.097 163.827 116.7 163.85ZM90.4403 137.62H67.1003V158.04H90.4403V137.62ZM105 131.79V114.28H5.84031V128.87C5.84129 129.271 5.91938 129.668 6.07031 130.04C6.20021 130.503 6.46777 130.915 6.83748 131.222C7.20718 131.529 7.66155 131.717 8.14031 131.76H105V131.79ZM169.18 140.36V134.7H110.86V140.36C110.832 140.746 110.88 141.135 111.003 141.503C111.125 141.87 111.32 142.21 111.575 142.502C111.83 142.794 112.14 143.033 112.488 143.204C112.835 143.375 113.213 143.476 113.6 143.5H166.29C167.065 143.5 167.807 143.192 168.355 142.645C168.903 142.097 169.21 141.354 169.21 140.58C169.218 140.507 169.218 140.433 169.21 140.36H169.18ZM163.35 79.2699V105.5C163.348 107.821 162.424 110.047 160.781 111.688C159.138 113.328 156.912 114.25 154.59 114.25H125.45C123.13 114.25 120.904 113.328 119.263 111.687C117.622 110.046 116.7 107.821 116.7 105.5V79.2699C116.698 78.1191 116.922 76.9792 117.361 75.9153C117.799 74.8514 118.443 73.8844 119.256 73.0698C120.069 72.2551 121.034 71.6088 122.097 71.1678C123.16 70.7269 124.3 70.4999 125.45 70.4999H154.62C155.772 70.4999 156.911 70.7268 157.975 71.1677C159.038 71.6085 160.005 72.2547 160.818 73.0692C161.632 73.8837 162.277 74.8505 162.716 75.9145C163.156 76.9785 163.382 78.1187 163.38 79.2699H163.35ZM157.51 79.2699C157.51 78.8869 157.435 78.5077 157.288 78.154C157.141 77.8003 156.926 77.479 156.654 77.2087C156.383 76.9383 156.061 76.7242 155.707 76.5785C155.353 76.4329 154.973 76.3586 154.59 76.3599H125.45C125.067 76.3586 124.688 76.4329 124.334 76.5785C123.979 76.7242 123.657 76.9383 123.386 77.2087C123.115 77.479 122.9 77.8003 122.753 78.154C122.606 78.5077 122.53 78.8869 122.53 79.2699V105.5C122.53 106.274 122.838 107.017 123.386 107.565C123.933 108.112 124.676 108.42 125.45 108.42H154.62C155.395 108.42 156.137 108.112 156.685 107.565C157.233 107.017 157.54 106.274 157.54 105.5L157.51 79.2699ZM148.79 92.3999C148.79 92.872 148.675 93.337 148.456 93.755C148.236 94.1729 147.919 94.5315 147.53 94.7999L135.86 102.93C135.377 103.278 134.796 103.464 134.2 103.46C133.731 103.46 133.269 103.34 132.86 103.11C132.389 102.865 131.992 102.497 131.714 102.044C131.436 101.591 131.286 101.071 131.28 100.54V84.2599C131.286 83.4863 131.597 82.7461 132.146 82.201C132.694 81.6558 133.437 81.3499 134.21 81.3499C134.801 81.3487 135.377 81.5304 135.86 81.8699L147.53 90.0099C147.919 90.2761 148.236 90.6328 148.456 91.0492C148.675 91.4656 148.79 91.9292 148.79 92.3999ZM140.79 92.3999L137.14 89.8599V94.9399L140.79 92.3999Z" fill="#6D737C"/>
</g>
<defs>
<clipPath id="clip0_1533_383">
<rect width="175.05" height="175.05" fill="white" transform="translate(0 0.5)"/>
</clipPath>
</defs>
</svg>
