<svg width="34" height="34" viewBox="0 0 34 34" fill="none" xmlns="http://www.w3.org/2000/svg">
<path d="M29.9834 21.7932C29.9834 28.7422 24.9605 32.9965 16.8376 32.9965C12.9101 33.0711 9.06534 31.9396 5.89656 29.7768L8.67326 24.9743C10.9183 26.878 13.8515 27.923 16.8873 27.9006C21.6865 27.9006 24.3471 25.5148 24.3471 21.3376V21.0751C22.2491 22.6937 19.6114 23.581 16.8873 23.5845C15.3096 23.5754 13.7494 23.2757 12.2965 22.7025C10.8437 22.1294 9.52694 21.2941 8.42213 20.2448C7.31733 19.1956 6.44631 17.9531 5.85922 16.5889C5.27213 15.2247 4.98059 13.7658 5.00139 12.2962C4.97723 10.8221 5.26779 9.3583 5.85616 7.98976C6.44454 6.62122 7.31898 5.37525 8.42874 4.32424C9.53849 3.27323 10.8614 2.43813 12.3206 1.86748C13.7798 1.29684 15.3462 1.00201 16.9288 1.00014C19.6473 0.987328 22.2855 1.85839 24.3886 3.46318V1.62555H30L29.9834 21.7932ZM17.6913 18.4576C18.5484 18.4519 19.3956 18.2864 20.183 17.9709C20.9704 17.6554 21.6821 17.1964 22.276 16.6207C22.87 16.0451 23.3344 15.3646 23.6416 14.6192C23.9489 13.8739 24.093 13.0787 24.0653 12.2807C24.0918 11.483 23.947 10.6883 23.6393 9.94342C23.3316 9.19853 22.8672 8.51842 22.2735 7.94301C21.6797 7.36761 20.9685 6.90851 20.1816 6.59268C19.3948 6.27684 18.5481 6.11063 17.6913 6.10381C16.8314 6.10655 15.9807 6.2697 15.1896 6.58362C14.3984 6.89753 13.6828 7.35587 13.0848 7.93159C12.4869 8.5073 12.0187 9.18873 11.7081 9.93569C11.3974 10.6827 11.2505 11.48 11.2759 12.2807C11.2493 13.0817 11.3955 13.8795 11.7057 14.627C12.016 15.3744 12.4841 16.0563 13.0822 16.6322C13.6804 17.2081 14.3965 17.6664 15.1882 17.98C15.9799 18.2935 16.8311 18.456 17.6913 18.4576Z" fill="#002CA3"/>
</svg>
